<svg width="160" height="136" viewBox="0 0 160 136" fill="none" xmlns="http://www.w3.org/2000/svg">
<path d="M25.013 92.7831C24.9251 92.7908 24.8382 92.8076 24.7538 92.8331C24.6293 92.8672 24.5143 92.9294 24.4177 93.0148C24.3211 93.1002 24.2456 93.2065 24.1969 93.3256L7.24802 134.919C7.18605 135.089 7.18362 135.275 7.24118 135.447C7.29874 135.619 7.4129 135.766 7.56517 135.865C7.681 135.941 7.81385 135.987 7.95195 136L8.24204 135.915C8.35024 135.912 8.45446 135.874 8.53987 135.808L27.4923 122.887L53.1902 105.38C53.2968 105.285 53.3768 105.165 53.4222 105.03C53.4677 104.895 53.477 104.75 53.4493 104.611C53.4237 104.474 53.3613 104.347 53.2687 104.242C53.176 104.138 53.0567 104.06 52.9233 104.018L41.0839 99.2471L25.3147 92.8908C25.2203 92.8435 25.1181 92.8135 25.013 92.8023V92.7831Z" fill="#15484B"/>
<path d="M90.6037 0.396813C77.7061 -0.715454 64.7128 0.51531 52.258 4.02901C46.2539 5.69288 40.4411 7.97668 34.9145 10.8432C29.7227 13.4962 24.8382 16.7063 20.3483 20.4162C16.1615 23.8869 12.4421 27.8804 9.28237 32.2978C6.2603 36.4537 3.89666 41.046 2.27385 45.9147C-0.955204 55.6251 -0.739472 66.1434 2.885 75.7148C6.33124 84.9492 12.9414 93.4833 22.0269 100.378C31.1125 107.273 42.0043 112.306 54.5632 115.319C59.2731 116.422 64.0553 117.193 68.8742 117.627C73.1021 117.981 77.3461 118.11 81.5878 118.012C95.1716 117.627 107.997 114.849 119.705 109.751C131.131 104.795 140.487 98.1005 147.523 89.8511C150.945 85.9207 153.77 81.5133 155.908 76.7691C156.969 74.4208 157.838 71.9915 158.507 69.5047C160.484 62.084 160.498 54.2808 158.546 46.8535C157.258 41.9348 155.191 37.2513 152.423 32.9788C146.985 24.4832 138.577 16.9841 128.106 11.2972C122.752 8.40671 117.121 6.05566 111.297 4.27909C105.068 2.43836 98.6805 1.18237 92.2166 0.52762C91.6906 0.469905 91.1529 0.423748 90.6153 0.373728L90.6037 0.396813Z" fill="#15484B"/>
<path d="M113.486 20.3162C111.007 20.3162 108.435 20.9511 105.599 22.24C103.405 23.2538 101.419 24.6627 99.7397 26.3955C96.2896 29.8276 94.3247 34.9219 94.3247 40.3587C94.3247 42.8212 94.9668 45.3837 96.2586 48.2002C97.275 50.3845 98.6916 52.3613 100.436 54.0294C103.464 57.0229 107.727 58.9121 112.449 59.3315C112.937 59.3777 113.436 59.4008 113.927 59.4161C114.107 59.4258 114.288 59.4258 114.468 59.4161C114.67 59.4161 114.855 59.4162 115.064 59.3777C116.243 59.2679 117.414 59.0907 118.572 58.8467C119.847 58.5557 121.082 58.1126 122.25 57.527C124.48 56.5107 126.499 55.0882 128.203 53.333C131.653 49.8701 133.618 44.7989 133.618 39.3698C133.618 36.9073 132.988 34.3448 131.684 31.5283C130.665 29.3456 129.249 27.3692 127.507 25.6991C124.486 22.7056 120.216 20.8164 115.482 20.3932C114.813 20.3354 114.143 20.3047 113.474 20.3047L113.486 20.3162ZM122.935 43.6946C121.881 42.6 121.304 41.1356 121.33 39.6199C121.372 36.6726 124.037 33.7176 127.17 33.9985C128.745 34.137 130.094 34.5872 131.216 35.7376C132.269 36.832 132.847 38.2941 132.825 39.8085C132.779 42.7596 130.118 45.7108 126.981 45.4338C125.434 45.2952 124.057 44.8412 122.935 43.6946Z" fill="#EBEBEB"/>
<path d="M111.014 74.3951C110.754 74.4265 110.495 74.4741 110.241 74.5375H110.202C110.202 74.5375 110.202 74.5644 110.202 74.576C110.387 75.4929 110.646 76.3935 110.976 77.2693C111.604 78.8775 112.404 80.4139 113.362 81.8519C114.118 83.0119 114.952 84.1188 115.861 85.1647C116.456 85.8766 117.056 86.5807 117.667 87.2733C118.295 87.9515 118.983 88.5711 119.725 89.124C120.454 89.6899 121.23 90.1932 122.045 90.6284C123.639 91.433 125.348 91.986 127.112 92.2675C127.959 92.4137 128.826 92.5099 129.688 92.5984C130.296 92.6523 130.903 92.6869 131.514 92.6908C132.125 92.6946 132.814 92.7369 133.448 92.6908C134.175 92.6561 134.906 92.6407 135.637 92.5753C136.368 92.5099 137.103 92.4368 137.842 92.3753C138.58 92.3137 139.292 92.1867 140.012 92.0905C140.642 92.0059 141.253 91.8828 141.864 91.775C142.212 91.7096 142.557 91.648 142.905 91.5903C143.253 91.5326 143.512 91.4364 143.81 91.3633L144.885 91.0978C145.582 90.9258 146.264 90.6968 146.923 90.4129C147.426 90.1975 147.917 89.9551 148.401 89.6934C148.656 89.4433 148.908 89.1855 149.151 88.9239C149.294 88.7315 149.445 88.5391 149.588 88.3544L149.623 88.3083L149.778 88.1005C149.948 87.8081 150.118 87.5195 150.273 87.2155C150.551 86.6922 150.818 86.1574 151.105 85.6418L151.391 85.1609L150.424 85.7303C149.016 86.573 147.635 87.4387 146.169 88.1544C145.454 88.4637 144.714 88.7121 143.957 88.897L142.375 89.3241C142.065 89.4049 141.741 89.4549 141.423 89.528C140.913 89.6319 140.41 89.7358 139.899 89.8281C140.004 89.8281 140.104 89.7973 140.205 89.7858L137.815 90.1705C137.358 90.2513 136.894 90.2898 136.438 90.336C136.093 90.386 135.757 90.436 135.413 90.4553C134.554 90.5284 133.684 90.6323 132.821 90.6438C132.257 90.6438 131.684 90.6707 131.123 90.6823C130.159 90.6834 129.196 90.6308 128.238 90.5245L128.505 90.5476C127.731 90.4553 126.958 90.3475 126.161 90.1898C125.247 90.0156 124.351 89.758 123.484 89.4203L123.697 89.501C123.156 89.274 122.63 89.0278 122.1 88.7315C121.474 88.3888 120.873 88.0031 120.301 87.5772C119.972 87.3387 119.651 87.0886 119.338 86.8077C118.998 86.5178 118.674 86.2095 118.367 85.8843C118.1 85.6188 117.845 85.3494 117.594 85.0647C117.342 84.78 116.959 84.399 116.65 84.0643C116.34 83.7295 115.961 83.264 115.625 82.8561L115.733 82.9831C114.512 81.4398 113.473 79.7614 112.639 77.9811C112.639 77.9811 112.639 77.9811 112.639 77.9581C112.64 77.944 112.64 77.9298 112.639 77.9157C112.127 76.7854 111.738 75.6039 111.479 74.3913C111.479 74.3682 111.432 74.3451 111.417 74.3259C111.274 74.3259 111.142 74.349 110.999 74.3682L111.014 74.3951Z" fill="#EBEBEB"/>
<path d="M149.673 88.3183L149.706 88.2775L149.673 88.3183Z" fill="#EBEBEB"/>
<path d="M112.658 77.9709C112.66 77.9642 112.66 77.957 112.658 77.9503V77.9709Z" fill="#EBEBEB"/>
</svg>
