<svg width="15" height="16" viewBox="0 0 15 16" fill="none" xmlns="http://www.w3.org/2000/svg">
<path d="M13.2344 8.78333C13.2665 8.53333 13.2826 8.275 13.2826 8C13.2826 7.73333 13.2665 7.46667 13.2264 7.21667L14.8568 5.9C14.927 5.83992 14.975 5.75641 14.9926 5.66372C15.0102 5.57103 14.9962 5.47489 14.9531 5.39167L13.4111 2.625C13.3657 2.54131 13.2932 2.47698 13.2065 2.44343C13.1198 2.40987 13.0244 2.40925 12.9373 2.44167L11.0178 3.24167C10.6162 2.925 10.1905 2.65834 9.71667 2.45834L9.42754 0.341669C9.41331 0.246277 9.36659 0.159342 9.29585 0.0966492C9.22512 0.0339567 9.13506 -0.000334587 9.04203 2.46116e-06H5.95797C5.76522 2.46116e-06 5.61262 0.141669 5.58049 0.341669L5.29136 2.45834C4.81751 2.65834 4.38382 2.93334 3.99028 3.24167L2.07077 2.44167C1.89408 2.375 1.6933 2.44167 1.59692 2.625L0.0629205 5.39167C-0.0334564 5.56667 -0.00133086 5.78333 0.159297 5.9L1.78967 7.21667C1.74952 7.46667 1.71739 7.74167 1.71739 8C1.71739 8.25834 1.73345 8.53333 1.77361 8.78333L0.143234 10.1C0.0729789 10.1601 0.024975 10.2436 0.00740133 10.3363C-0.0101723 10.429 0.00377177 10.5251 0.0468577 10.6083L1.58889 13.375C1.68526 13.5583 1.88605 13.6167 2.06274 13.5583L3.98224 12.7583C4.38382 13.075 4.80948 13.3417 5.28333 13.5417L5.57246 15.6583C5.61262 15.8583 5.76522 16 5.95797 16H9.04203C9.23478 16 9.39541 15.8583 9.41951 15.6583L9.70864 13.5417C10.1825 13.3417 10.6162 13.075 11.0097 12.7583L12.9292 13.5583C13.1059 13.625 13.3067 13.5583 13.4031 13.375L14.9451 10.6083C15.0415 10.425 15.0013 10.2167 14.8487 10.1L13.2344 8.78333ZM7.5 11C5.90978 11 4.60869 9.65 4.60869 8C4.60869 6.35 5.90978 5 7.5 5C9.09022 5 10.3913 6.35 10.3913 8C10.3913 9.65 9.09022 11 7.5 11Z" fill="#EBEBEB"/>
</svg>
